<svg width="24" height="26" viewBox="0 0 24 26" fill="none" xmlns="http://www.w3.org/2000/svg">
<g clip-path="url(#clip0_3726_128)">
<path d="M12 23.1063C13.1 23.1063 14 22.1967 14 21.0851H10C10 22.1967 10.9 23.1063 12 23.1063ZM18 17.0426V11.9895C18 8.88685 16.37 6.28955 13.5 5.60233V4.9151C13.5 4.07629 12.83 3.39917 12 3.39917C11.17 3.39917 10.5 4.07629 10.5 4.9151V5.60233C7.64 6.28955 6 8.87674 6 11.9895V17.0426L4 19.0638V20.0744H20V19.0638L18 17.0426ZM16 18.0532H8V11.9895C8 9.48312 9.51 7.44166 12 7.44166C14.49 7.44166 16 9.48312 16 11.9895V18.0532Z" fill="currentColor"/>
</g>
<defs>
<clipPath id="clip0_3726_128">
<rect width="24" height="24.2549" fill="white" transform="translate(0 0.872559)"/>
</clipPath>
</defs>
</svg>
